<?xml version="1.0" standalone="no"?>
<!DOCTYPE svg PUBLIC "-//W3C//DTD SVG 20010904//EN"
 "http://www.w3.org/TR/2001/REC-SVG-20010904/DTD/svg10.dtd">
<svg version="1.0" xmlns="http://www.w3.org/2000/svg"
 width="370.000000pt" height="115.000000pt" viewBox="0 0 370.000000 115.000000"
 preserveAspectRatio="xMidYMid meet">

<g transform="translate(0.000000,115.000000) scale(0.100000,-0.100000)"
fill="#000000" stroke="none">
<path d="M160 1110 c0 -5 11 -10 25 -10 l25 0 0 -230 c0 -221 -1 -230 -19
-230 -11 0 -23 -4 -26 -10 -4 -6 42 -10 132 -10 161 0 196 11 226 73 34 68 -4
165 -70 182 l-26 6 32 20 c18 11 39 36 47 56 30 70 -5 136 -83 154 -53 12
-263 12 -263 -1z m265 -45 c35 -34 35 -101 0 -139 -21 -23 -32 -26 -85 -26
l-60 0 0 95 0 95 60 0 c51 0 65 -4 85 -25z m-10 -209 c42 -18 55 -42 55 -104
0 -35 -6 -57 -21 -76 -19 -24 -26 -26 -95 -26 l-74 0 0 110 0 110 50 0 c28 0
66 -6 85 -14z"/>
<path d="M595 1112 c6 -6 19 -12 30 -14 19 -3 20 -12 23 -226 2 -205 1 -223
-15 -228 -45 -15 -45 -19 -1 -22 27 -2 69 -1 95 0 47 4 47 4 16 12 l-33 9 0
93 0 94 44 0 44 0 57 -105 56 -105 57 1 c52 1 54 2 27 11 -25 8 -42 28 -84
104 -29 52 -52 96 -50 97 2 2 21 10 41 19 46 21 70 66 70 130 -1 55 -18 88
-59 115 -22 15 -54 19 -178 21 -98 2 -147 0 -140 -6z m286 -49 c30 -29 37
-108 15 -152 -21 -39 -50 -51 -127 -51 l-59 0 0 116 0 116 75 -4 c60 -3 79 -8
96 -25z"/>
<path d="M1070 1110 c0 -5 11 -10 25 -10 l25 0 0 -228 0 -228 -27 -11 c-23 -9
-13 -11 62 -11 75 0 85 2 63 11 l-28 11 0 228 0 228 25 0 c14 0 25 5 25 10 0
6 -35 10 -85 10 -50 0 -85 -4 -85 -10z"/>
<path d="M1307 1113 c-11 -11 -8 -103 3 -103 11 0 14 7 24 53 6 26 9 27 71 27
l65 0 0 -224 0 -223 -32 -11 c-28 -8 -18 -10 62 -10 79 0 90 2 68 11 l-28 11
0 223 0 223 64 0 63 0 7 -39 c10 -65 26 -59 26 8 l0 61 -193 0 c-107 0 -197
-3 -200 -7z"/>
<path d="M1961 1088 c-5 -13 -46 -108 -91 -213 -107 -249 -102 -235 -86 -235
8 0 26 29 41 65 l28 66 130 -3 129 -3 26 -62 c15 -36 32 -63 40 -63 17 0 23
-17 -91 252 -51 120 -98 218 -105 218 -7 0 -16 -10 -21 -22z m27 -296 c-61 -1
-113 0 -116 3 -3 3 13 49 36 102 23 54 49 116 58 137 l16 39 58 -139 58 -139
-110 -3z"/>
<path d="M2260 875 l0 -235 140 0 c118 0 140 2 140 15 0 13 -21 15 -130 15
l-130 0 0 220 c0 140 -4 220 -10 220 -6 0 -10 -85 -10 -235z"/>
<path d="M2610 875 l0 -235 115 0 c131 0 181 14 208 59 34 58 9 159 -43 176
-20 6 -20 8 10 41 34 40 40 87 14 135 -23 46 -67 59 -194 59 l-110 0 0 -235z
m265 180 c19 -18 25 -35 25 -65 0 -30 -6 -47 -25 -65 -23 -24 -31 -25 -135
-25 l-110 0 0 90 0 90 110 0 c104 0 112 -1 135 -25z m21 -218 c31 -36 33 -104
5 -138 -18 -23 -27 -24 -145 -27 l-126 -4 0 102 0 102 121 -3 c118 -4 121 -5
145 -32z"/>
<path d="M3030 875 c0 -202 2 -235 15 -235 13 0 15 33 15 235 0 202 -2 235
-15 235 -13 0 -15 -33 -15 -235z"/>
<path d="M3170 875 c0 -150 4 -235 10 -235 6 0 10 78 11 213 0 211 0 212 19
187 11 -14 79 -108 152 -209 73 -101 139 -186 146 -189 9 -3 12 48 12 232 0
151 -4 236 -10 236 -6 0 -10 -78 -10 -212 -1 -170 -3 -210 -13 -196 -7 9 -75
104 -152 212 -77 107 -146 195 -152 196 -10 0 -13 -53 -13 -235z"/>
<path d="M2042 561 c-17 -28 -32 -53 -32 -58 0 -4 -28 -16 -62 -27 -133 -39
-170 -64 -48 -31 30 8 63 15 73 15 33 0 -8 -56 -70 -96 -32 -21 -122 -81 -201
-133 -290 -195 -299 -199 -294 -121 2 25 17 76 33 115 40 96 39 109 -6 79 -13
-9 -29 -13 -34 -10 -8 5 -125 -56 -267 -139 -17 -10 -38 -16 -47 -12 -14 5
-15 11 -5 38 9 28 8 34 -7 46 -11 7 -24 13 -30 13 -14 0 -60 -49 -68 -73 -9
-25 18 -33 47 -14 22 15 24 14 34 -9 20 -42 34 -37 212 69 59 35 96 51 123 52
30 0 36 -3 31 -15 -18 -41 -44 -134 -44 -155 0 -13 7 -30 15 -38 24 -25 74 -6
181 68 210 145 366 246 371 241 3 -2 -2 -27 -12 -55 -9 -29 -15 -72 -13 -103
l3 -53 40 1 c31 0 75 20 188 83 82 45 212 113 290 152 78 39 170 85 205 102
35 17 59 33 53 35 -19 6 -381 -168 -526 -253 -93 -55 -197 -105 -219 -105 -17
0 -18 5 -13 63 5 49 63 226 79 243 7 7 318 74 344 74 21 0 25 3 17 11 -9 9
-46 5 -145 -15 -73 -15 -145 -31 -160 -36 -38 -12 -41 -3 -13 45 26 44 30 55
17 55 -4 0 -22 -22 -40 -49z m-1004 -371 c-20 -27 -38 -39 -38 -24 0 13 36 53
48 54 8 0 5 -11 -10 -30z"/>
<path d="M150 280 c0 -6 92 -10 255 -10 163 0 255 4 255 10 0 6 -92 10 -255
10 -163 0 -255 -4 -255 -10z"/>
<path d="M3030 280 c0 -6 92 -10 255 -10 163 0 255 4 255 10 0 6 -92 10 -255
10 -163 0 -255 -4 -255 -10z"/>
</g>
</svg>
