<svg id="Capa_1" enable-background="new 0 0 511.943 511.943" height="512" viewBox="0 0 511.943 511.943" width="512" xmlns="http://www.w3.org/2000/svg"><g><path d="m398.077 209.228c4.143 0 7.5-3.357 7.5-7.5v-83.748c0-18.717-15.228-33.944-33.944-33.944h-231.323c-18.717 0-33.944 15.228-33.944 33.944v322.264c0 .013.002.026.002.039.021 29.997 24.43 54.395 54.432 54.395h110.654c4.143 0 7.5-3.357 7.5-7.5s-3.357-7.5-7.5-7.5h-110.654c-21.743 0-39.433-17.689-39.433-39.434s17.689-39.434 39.433-39.434h229.777v31.934h-161.519c-4.143 0-7.5 3.357-7.5 7.5s3.357 7.5 7.5 7.5h66.657v52.998c.196 8.402 9.982 15.18 18.814 8.486l14.095-12.149 14.094 12.148c5.779 5.413 18.901 1.89 18.815-8.485v-6.064h10.469c18.513 0 33.574-15.061 33.574-33.573v-228.792c0-4.143-3.357-7.5-7.5-7.5s-7.5 3.357-7.5 7.5v153.498h-229.776c-15.508 0-29.51 6.529-39.434 16.97v-284.8c0-10.446 8.498-18.944 18.944-18.944h231.322c10.446 0 18.944 8.498 18.944 18.944v83.747c.001 4.142 3.358 7.5 7.501 7.5zm-51.543 283.485-10.454-9.011c-3.392-2.698-9.254-4.265-14.911.001l-10.453 9.01v-44.969h35.818zm25.469-13.035h-10.469v-31.934h29.043v13.36c0 10.242-8.332 18.574-18.574 18.574z"/><path d="m342.886 189.609v-17.368c0-9.579-7.919-17.372-17.653-17.372h-32.583v-16.161c0-9.579-7.92-17.372-17.654-17.372h-30.249c-9.734 0-17.654 7.793-17.654 17.372v16.161h-32.582c-9.734 0-17.653 7.793-17.653 17.372v17.368c0 9.578 7.919 17.371 17.653 17.371h32.582v106.4c0 9.578 7.92 17.371 17.654 17.371h30.249c9.734 0 17.654-7.793 17.654-17.371v-106.4h32.582c9.735 0 17.654-7.792 17.654-17.371zm-57.736 2.371c-4.143 0-7.5 3.357-7.5 7.5v113.9c0 1.308-1.19 2.371-2.654 2.371h-30.249c-1.464 0-2.654-1.063-2.654-2.371v-113.9c0-4.143-3.357-7.5-7.5-7.5h-40.082c-1.463 0-2.653-1.063-2.653-2.371v-17.368c0-1.308 1.19-2.372 2.653-2.372h40.082c4.143 0 7.5-3.357 7.5-7.5v-23.661c0-1.308 1.19-2.372 2.654-2.372h30.249c1.464 0 2.654 1.064 2.654 2.372v23.661c0 4.143 3.357 7.5 7.5 7.5h40.082c1.463 0 2.653 1.064 2.653 2.372v17.368c0 1.308-1.19 2.371-2.653 2.371z"/><path d="m154.35 432.744c-4.143 0-7.5 3.357-7.5 7.5s3.357 7.5 7.5 7.5h44.594c4.143 0 7.5-3.357 7.5-7.5s-3.357-7.5-7.5-7.5z"/><path d="m259.871 53.288c4.143 0 7.5-3.357 7.5-7.5v-38.288c0-4.143-3.357-7.5-7.5-7.5s-7.5 3.357-7.5 7.5v38.288c0 4.143 3.357 7.5 7.5 7.5z"/><path d="m200.031 61.235c1.482 1.721 3.577 2.603 5.683 2.603 1.735 0 3.478-.599 4.895-1.82 3.137-2.704 3.487-7.44.782-10.577l-21.639-25.097c-2.704-3.14-7.441-3.486-10.577-.782-3.137 2.704-3.487 7.44-.782 10.577z"/><path d="m312.054 62.912c1.899 0 3.801-.717 5.261-2.154l23.617-23.245c2.952-2.906 2.99-7.654.085-10.606-2.907-2.954-7.656-2.991-10.606-.085l-23.617 23.245c-2.952 2.906-2.99 7.654-.085 10.606 1.468 1.492 3.405 2.239 5.345 2.239z"/><path d="m210.7 347.529c-4.143 0-7.5 3.357-7.5 7.5s3.357 7.5 7.5 7.5h98.343c4.143 0 7.5-3.357 7.5-7.5s-3.357-7.5-7.5-7.5z"/></g></svg>