<svg id="Layer_1" enable-background="new 0 0 512 512" viewBox="0 0 512 512" xmlns="http://www.w3.org/2000/svg"><path d="m510.32 458.59c-3.3-43.94-34.3-80.08-74.98-91.71 18.69-10.06 31.43-29.81 31.43-52.48 0-32.84-26.72-59.56-59.56-59.56s-59.56 26.72-59.56 59.56c0 22.67 12.73 42.42 31.42 52.48-26.04 7.41-48.49 24.91-62.03 49.01-9.84-6.93-20.88-12.22-32.7-15.52 19.54-10.24 32.9-30.72 32.9-54.26 0-33.77-27.47-61.24-61.24-61.24s-61.24 27.47-61.24 61.24c0 23.55 13.37 44.02 32.9 54.26-11.82 3.3-22.86 8.6-32.7 15.52-13.54-24.11-35.99-41.6-62.03-49.01 18.69-10.06 31.42-29.81 31.42-52.48 0-32.84-26.72-59.56-59.56-59.56s-59.56 26.72-59.56 59.56c0 22.67 12.74 42.42 31.43 52.48-40.68 11.63-71.68 47.76-74.98 91.71-.3 4.06 1.1 8.1 3.86 11.07s6.68 4.68 10.75 4.68h137.14c-1.87 6.65-3.11 13.56-3.65 20.67-.31 4.12 1.12 8.22 3.92 11.24s6.78 4.75 10.91 4.75h182.76c4.14 0 8.11-1.73 10.91-4.75s4.23-7.11 3.92-11.24c-.53-7.11-1.78-14.02-3.65-20.67h137.15c4.08 0 8-1.71 10.75-4.68s4.17-7.01 3.87-11.07zm-146.68-144.19c0-24.02 19.54-43.56 43.56-43.56s43.56 19.54 43.56 43.56-19.54 43.56-43.56 43.56-43.56-19.54-43.56-43.56zm-152.88 31.71c0-24.95 20.3-45.24 45.24-45.24s45.24 20.29 45.24 45.24-20.29 45.24-45.24 45.24-45.24-20.3-45.24-45.24zm-149.53-31.71c0-24.02 19.54-43.56 43.56-43.56s43.56 19.54 43.56 43.56-19.54 43.56-43.56 43.56-43.56-19.54-43.56-43.56zm98.14 143.94h-141.61c4.09-44.64 42.05-79.4 87.04-79.4 32.71 0 62.57 18.4 77.59 47.32-9.52 9.12-17.38 19.98-23.02 32.08zm6.47 36.66c4.11-46.37 43.47-82.51 90.16-82.51s86.05 36.14 90.16 82.51zm186.79-36.66c-5.64-12.1-13.5-22.96-23.01-32.09 15.02-28.92 44.88-47.32 77.59-47.32 44.99 0 82.94 34.76 87.04 79.4h-141.62zm-149.13-267.06c3.55 2.12 5.43 5.42 5.43 9.56v23c0 8.73 5.36 16.22 12.97 19.37v2.97c0 14.96 12.17 27.13 27.13 27.13h13.57c14.96 0 27.13-12.17 27.13-27.13v-2.97c7.6-3.15 12.97-10.64 12.97-19.37v-23c0-4.14 1.88-7.44 5.43-9.56 30.85-18.38 50.01-52.08 50.01-87.96 0-56.42-45.91-102.32-102.33-102.32s-102.32 45.9-102.32 102.32c0 35.88 19.16 69.58 50.01 87.96zm33.43-67.8c-11.31-3.45-18.59-9.68-18.59-15.44 0-5.12 4.17-9.29 9.29-9.29s9.29 4.17 9.29 9.29v15.44zm21.76 77.87h-5.76v-59.23c1.91.06 3.85.06 5.76 0zm28 16v6.49c0 2.74-2.23 4.97-4.97 4.97h-51.82c-2.74 0-4.97-2.23-4.97-4.97v-6.49zm-24.09 39.96h-13.57c-6.14 0-11.13-4.99-11.13-11.13v-1.37h35.82v1.37c0 6.14-4.99 11.13-11.12 11.13zm-6.79-240.31c47.6 0 86.32 38.72 86.32 86.32 0 30.27-16.17 58.7-42.2 74.21-8.42 5.02-13.24 13.51-13.24 23.3v.51h-12v-61.29c20.4-4.77 34.58-17.14 34.58-32.02 0-13.95-11.35-25.29-25.29-25.29s-25.29 11.35-25.29 25.29v18.07c-1.9.08-3.87.08-5.76 0v-18.07c0-13.95-11.35-25.29-25.29-25.29-13.95 0-25.29 11.35-25.29 25.29 0 14.88 14.19 27.25 34.59 32.02v61.29h-12v-.51c0-9.79-4.83-18.29-13.24-23.3-26.03-15.51-42.2-43.95-42.2-74.21-.01-47.6 38.71-86.32 86.31-86.32zm18.88 106.48v-15.44c0-5.12 4.17-9.29 9.29-9.29s9.29 4.17 9.29 9.29c.01 5.77-7.27 11.99-18.58 15.44zm76.78-76.13c-2.21-3.83-.9-8.72 2.93-10.93l21.18-12.23c3.83-2.21 8.72-.9 10.93 2.93s.9 8.72-2.93 10.93l-21.18 12.22c-1.26.73-2.64 1.07-3.99 1.07-2.77.01-5.46-1.43-6.94-3.99zm23.17 47.33h24.46c4.42 0 8 3.58 8 8s-3.58 8-8 8h-24.46c-4.42 0-8-3.58-8-8s3.59-8 8-8zm9.59 72.8c3.83 2.21 5.14 7.1 2.93 10.93-1.48 2.57-4.17 4-6.94 4-1.36 0-2.73-.35-3.99-1.07l-21.18-12.23c-3.83-2.21-5.14-7.1-2.93-10.93s7.1-5.14 10.93-2.93zm-224.08-8.18c2.21 3.83.9 8.72-2.93 10.93l-21.18 12.23c-1.26.73-2.64 1.07-3.99 1.07-2.76 0-5.45-1.44-6.94-4-2.21-3.83-.9-8.72 2.93-10.93l21.18-12.23c3.83-2.21 8.72-.9 10.93 2.93zm-35.04-132.18c2.21-3.83 7.1-5.14 10.93-2.93l21.18 12.23c3.83 2.21 5.14 7.1 2.93 10.93-1.48 2.57-4.17 4-6.94 4-1.36 0-2.73-.35-3.99-1.07l-21.18-12.23c-3.82-2.22-5.14-7.11-2.93-10.93zm-20.22 75.45c0-4.42 3.58-8 8-8h24.46c4.42 0 8 3.58 8 8s-3.58 8-8 8h-24.46c-4.41 0-8-3.58-8-8z"/></svg>